<svg width="718" height="434" viewBox="0 0 718 434" fill="none" xmlns="http://www.w3.org/2000/svg">
<g opacity="0.7">
<path d="M230.413 224.462C230.276 224.087 230.067 223.742 229.796 223.448C229.525 223.153 229.198 222.915 228.835 222.746C228.471 222.577 228.077 222.481 227.675 222.463C227.274 222.446 226.873 222.507 226.496 222.643L33.3229 292.176C32.7564 292.381 32.2634 292.748 31.9055 293.229C31.5476 293.711 31.3407 294.287 31.3105 294.885C31.2803 295.482 31.4281 296.076 31.7357 296.591C32.0433 297.106 32.4969 297.519 33.0398 297.779L197.126 375.924C197.541 376.118 197.994 376.219 198.452 376.22C199.147 376.222 199.822 375.989 200.366 375.559C200.91 375.129 201.29 374.529 201.445 373.856C201.599 373.183 201.518 372.478 201.215 371.857C200.912 371.236 200.405 370.736 199.777 370.439L42.2663 295.429L228.581 228.358C228.959 228.222 229.306 228.013 229.603 227.743C229.9 227.474 230.14 227.149 230.31 226.787C230.48 226.425 230.577 226.033 230.595 225.635C230.612 225.236 230.55 224.837 230.413 224.462Z" fill="#00445D"/>
<path d="M664.167 402.2L512.877 251.477C512.294 250.949 511.531 250.667 510.745 250.688C509.96 250.709 509.213 251.033 508.659 251.591C508.106 252.15 507.788 252.901 507.772 253.688C507.756 254.475 508.043 255.239 508.574 255.819L659.864 406.528C660.148 406.811 660.485 407.035 660.856 407.188C661.226 407.34 661.623 407.418 662.024 407.417C662.424 407.416 662.821 407.336 663.19 407.182C663.56 407.027 663.896 406.801 664.178 406.516C664.461 406.232 664.685 405.894 664.837 405.523C664.989 405.151 665.067 404.754 665.066 404.352C665.065 403.951 664.985 403.553 664.831 403.183C664.677 402.812 664.451 402.476 664.167 402.193V402.2Z" fill="#00445D"/>
<path d="M380.608 122.647L258.433 27.0086C257.794 26.5092 256.984 26.2847 256.181 26.3845C255.378 26.4843 254.647 26.9003 254.149 27.5408C253.651 28.1813 253.428 28.994 253.527 29.8001C253.627 30.6062 254.041 31.3395 254.679 31.8389L376.854 127.478C377.493 127.977 378.303 128.201 379.106 128.102C379.909 128.002 380.64 127.586 381.138 126.945C381.636 126.305 381.859 125.492 381.76 124.686C381.661 123.88 381.246 123.147 380.608 122.647Z" fill="#00445D"/>
<path d="M512.283 251.709L386.131 117.205C385.658 116.699 385.027 116.369 384.343 116.271C383.658 116.172 382.96 116.311 382.365 116.663L225.944 208.807C225.55 209.04 225.213 209.359 224.959 209.74C224.705 210.12 224.54 210.554 224.476 211.007C224.412 211.461 224.45 211.923 224.589 212.359C224.728 212.796 224.963 213.196 225.276 213.529L337.032 332.243L329.923 335.598L197.766 370.364C197.376 370.465 197.011 370.643 196.69 370.886C196.369 371.128 196.098 371.432 195.895 371.78C195.691 372.127 195.557 372.511 195.502 372.91C195.446 373.31 195.47 373.716 195.571 374.106C195.672 374.496 195.85 374.862 196.092 375.183C196.335 375.505 196.638 375.775 196.985 375.979C197.332 376.183 197.716 376.317 198.114 376.372C198.513 376.428 198.918 376.404 199.308 376.303L331.747 341.463C331.928 341.418 332.105 341.353 332.273 341.27L341.428 336.942L346.247 342.064C346.549 342.388 346.919 342.642 347.329 342.807L437.512 378.968C437.872 379.118 438.257 379.193 438.646 379.191C439.356 379.193 440.044 378.947 440.592 378.496C441.14 378.044 441.514 377.416 441.648 376.718C441.783 376.02 441.67 375.297 441.329 374.674C440.988 374.051 440.44 373.566 439.781 373.304L350.169 337.358L347.203 334.18L511.371 256.565C511.805 256.359 512.185 256.054 512.479 255.673C512.773 255.292 512.973 254.848 513.063 254.375C513.152 253.902 513.129 253.415 512.995 252.953C512.861 252.491 512.619 252.068 512.29 251.717L512.283 251.709ZM342.792 329.503L232.334 212.126L383.395 123.159L504.973 252.83L342.792 329.503Z" fill="#00445D"/>
<path d="M364.044 428.601L331.149 335.9C330.879 335.139 330.32 334.518 329.595 334.173C328.87 333.827 328.039 333.786 327.284 334.058C326.529 334.33 325.912 334.894 325.57 335.624C325.227 336.354 325.186 337.191 325.456 337.952L358.351 430.653C358.485 431.03 358.691 431.376 358.958 431.673C359.224 431.969 359.546 432.209 359.905 432.38C360.264 432.551 360.653 432.649 361.05 432.669C361.446 432.688 361.843 432.629 362.216 432.494C362.59 432.36 362.934 432.152 363.228 431.884C363.522 431.615 363.761 431.291 363.931 430.929C364.101 430.568 364.198 430.176 364.218 429.776C364.237 429.377 364.178 428.978 364.044 428.601Z" fill="#00445D"/>
<path d="M599.517 70.2434C598.899 69.9086 598.175 69.8348 597.504 70.038C596.832 70.2413 596.267 70.7051 595.933 71.3281L502.745 245.74C502.412 246.363 502.337 247.094 502.537 247.772C502.737 248.451 503.195 249.021 503.811 249.358C504.204 249.578 504.647 249.69 505.096 249.683C505.572 249.684 506.041 249.554 506.45 249.306C506.86 249.059 507.195 248.704 507.421 248.28L600.616 73.8678C600.78 73.557 600.881 73.2166 600.915 72.866C600.948 72.5155 600.913 72.1617 600.811 71.825C600.709 71.4883 600.542 71.1753 600.32 70.9039C600.098 70.6325 599.825 70.408 599.517 70.2434Z" fill="#00445D"/>
<path d="M338.656 370.399C356.066 364.599 365.476 345.788 359.675 328.383C353.873 310.978 335.056 301.571 317.646 307.37C300.237 313.17 290.826 331.982 296.628 349.386C302.429 366.791 321.246 376.199 338.656 370.399Z" fill="#4C7031"/>
<path d="M543.533 289.683C564.581 268.641 564.581 234.524 543.533 213.482C522.484 192.439 488.358 192.439 467.309 213.482C446.26 234.524 446.261 268.641 467.309 289.683C488.358 310.726 522.484 310.726 543.533 289.683Z" fill="#4C7031"/>
<path d="M632.961 27.6481C643.863 38.5464 643.863 56.216 632.961 67.1142C622.06 78.0125 604.385 78.0125 593.484 67.1143C582.582 56.216 582.582 38.5464 593.484 27.6482C604.385 16.7499 622.06 16.7499 632.961 27.6481Z" stroke="#4C7031" stroke-width="10"/>
<path d="M453.049 363.592H430.419C428.644 363.592 426.887 363.944 425.247 364.627C423.607 365.309 422.117 366.31 420.862 367.572C419.607 368.833 418.612 370.331 417.934 371.979C417.255 373.627 416.906 375.393 416.907 377.177C416.907 380.778 418.331 384.231 420.865 386.778C423.399 389.324 426.836 390.754 430.419 390.754L440.343 401.475V390.754H453.027C454.801 390.754 456.558 390.403 458.198 389.721C459.837 389.038 461.327 388.038 462.581 386.778C463.836 385.517 464.831 384.02 465.51 382.373C466.189 380.726 466.539 378.96 466.539 377.177C466.541 373.579 465.121 370.127 462.592 367.58C460.062 365.032 456.63 363.598 453.049 363.592Z" fill="#F49619"/>
<path d="M432.56 373.249C432.032 373.249 431.515 373.423 431.075 373.749C430.636 374.076 430.293 374.54 430.091 375.083C429.889 375.626 429.836 376.223 429.939 376.799C430.042 377.376 430.297 377.905 430.67 378.321C431.044 378.736 431.52 379.019 432.039 379.134C432.557 379.248 433.095 379.19 433.583 378.965C434.071 378.74 434.489 378.359 434.782 377.87C435.076 377.382 435.233 376.807 435.233 376.22C435.233 375.432 434.951 374.676 434.45 374.119C433.949 373.562 433.269 373.249 432.56 373.249Z" fill="white"/>
<path d="M441.723 373.249C441.195 373.249 440.678 373.423 440.239 373.749C439.799 374.076 439.456 374.54 439.254 375.083C439.052 375.626 438.999 376.223 439.102 376.799C439.205 377.376 439.46 377.905 439.834 378.321C440.207 378.736 440.684 379.019 441.202 379.134C441.72 379.248 442.258 379.19 442.746 378.965C443.234 378.74 443.652 378.359 443.945 377.87C444.239 377.382 444.396 376.807 444.396 376.22C444.396 375.432 444.114 374.676 443.613 374.119C443.112 373.562 442.432 373.249 441.723 373.249Z" fill="white"/>
<path d="M450.886 373.249C450.358 373.249 449.841 373.423 449.402 373.749C448.962 374.076 448.62 374.54 448.417 375.083C448.215 375.626 448.162 376.223 448.265 376.799C448.368 377.376 448.623 377.905 448.997 378.321C449.37 378.736 449.847 379.019 450.365 379.134C450.883 379.248 451.421 379.19 451.909 378.965C452.397 378.74 452.815 378.359 453.108 377.87C453.402 377.382 453.559 376.807 453.559 376.22C453.559 375.432 453.277 374.676 452.776 374.119C452.275 373.562 451.595 373.249 450.886 373.249Z" fill="white"/>
<path d="M405.642 99.8984H362.507C355.672 99.8984 349.116 102.619 344.282 107.461C339.449 112.304 336.733 118.872 336.733 125.72C336.73 129.114 337.393 132.475 338.687 135.611C339.98 138.747 341.878 141.597 344.272 143.998C346.666 146.399 349.508 148.304 352.637 149.603C355.766 150.903 359.12 151.572 362.507 151.572L381.425 171.95V151.572H405.642C412.476 151.572 419.031 148.852 423.864 144.011C428.697 139.17 431.414 132.604 431.416 125.757C431.421 122.363 430.757 119.002 429.464 115.864C428.171 112.727 426.274 109.876 423.88 107.475C421.486 105.073 418.643 103.168 415.513 101.868C412.384 100.568 409.03 99.8984 405.642 99.8984Z" fill="#F49619"/>
<path d="M366.512 119.211C365.455 119.211 364.421 119.538 363.542 120.15C362.664 120.762 361.978 121.632 361.574 122.65C361.169 123.668 361.063 124.788 361.27 125.869C361.476 126.95 361.985 127.942 362.732 128.721C363.48 129.501 364.432 130.031 365.469 130.246C366.506 130.461 367.581 130.351 368.557 129.929C369.534 129.507 370.369 128.793 370.956 127.877C371.544 126.961 371.857 125.884 371.857 124.782C371.855 123.305 371.291 121.889 370.289 120.845C369.287 119.801 367.929 119.213 366.512 119.211Z" fill="white"/>
<path d="M384.074 130.353C387.026 130.353 389.419 127.859 389.419 124.782C389.419 121.705 387.026 119.211 384.074 119.211C381.123 119.211 378.729 121.705 378.729 124.782C378.729 127.859 381.123 130.353 384.074 130.353Z" fill="white"/>
<path d="M402.508 129.995C405.453 129.517 407.453 126.743 406.975 123.799C406.497 120.855 403.722 118.856 400.777 119.334C397.833 119.812 395.833 122.586 396.311 125.53C396.789 128.474 399.564 130.473 402.508 129.995Z" fill="white"/>
<path d="M254.454 187.549H199.845C191.193 187.551 182.896 190.975 176.778 197.067C170.66 203.16 167.223 211.423 167.221 220.04C167.221 228.657 170.658 236.921 176.776 243.015C182.894 249.108 191.193 252.531 199.845 252.531L223.791 278.17V252.531H254.454C258.74 252.534 262.985 251.696 266.945 250.064C270.906 248.433 274.505 246.04 277.537 243.023C280.569 240.005 282.974 236.422 284.615 232.479C286.256 228.535 287.101 224.309 287.101 220.04C287.1 215.772 286.254 211.545 284.613 207.602C282.972 203.659 280.567 200.077 277.535 197.06C274.503 194.042 270.905 191.65 266.944 190.018C262.984 188.386 258.74 187.547 254.454 187.549Z" fill="#F49619"/>
<path d="M211.214 220.958C212.649 217.494 211.003 213.523 207.538 212.088C204.073 210.653 200.101 212.298 198.665 215.762C197.23 219.226 198.875 223.197 202.341 224.632C205.806 226.067 209.778 224.422 211.214 220.958Z" fill="white"/>
<path d="M227.161 225.432C230.746 225.432 233.652 222.272 233.652 218.375C233.652 214.478 230.746 211.318 227.161 211.318C223.577 211.318 220.671 214.478 220.671 218.375C220.671 222.272 223.577 225.432 227.161 225.432Z" fill="white"/>
<path d="M255.676 220.954C257.111 217.49 255.465 213.519 252 212.084C248.535 210.649 244.563 212.294 243.127 215.758C241.692 219.222 243.337 223.194 246.803 224.629C250.268 226.064 254.24 224.418 255.676 220.954Z" fill="white"/>
<path d="M198.161 354.679C194.459 354.676 190.84 355.785 187.761 357.865C184.682 359.946 182.282 362.904 180.865 366.366C179.447 369.828 179.076 373.639 179.798 377.314C180.52 380.99 182.302 384.367 184.92 387.016C187.538 389.666 190.874 391.47 194.504 392.199C198.135 392.929 201.898 392.551 205.317 391.115C208.736 389.678 211.657 387.247 213.71 384.129C215.764 381.01 216.858 377.346 216.853 373.598C216.847 368.581 214.876 363.771 211.371 360.224C207.867 356.677 203.116 354.683 198.161 354.679Z" fill="#F49619"/>
<path d="M68.721 274.456H0V315.31H68.721V274.456Z" fill="#FFCAA0"/>
<path d="M0 274.456L34.3605 297.483L68.721 274.456H0Z" fill="#FFECE1"/>
<path d="M290.919 6.30566H221.435V47.1596H290.919V6.30566Z" fill="#FFCAA0"/>
<path d="M221.435 6.30566L256.177 29.3324L290.919 6.30566H221.435Z" fill="#FFECE1"/>
<path d="M717.752 367.306H606.271V433.415H717.752V367.306Z" fill="#FFCAA0"/>
<path d="M606.271 367.306L662.012 404.446L717.752 367.306H606.271Z" fill="#FFECE1"/>
</g>
</svg>
