<svg width="69" height="66" viewBox="0 0 69 66" fill="none" xmlns="http://www.w3.org/2000/svg">
<path d="M24.9714 59.1386L14.4571 66C14.4571 66 12.0603 56.5524 8.87143 51.297C6.09587 46.7229 0 40.8416 0 40.8416C0 40.8416 2.35119 38.1249 4.27143 36.9208C6.46916 35.5427 10.5143 34.6337 10.5143 34.6337L14.6214 41.3317L18.7286 48.0297C18.7286 48.0297 30.6161 30.7027 40.0857 21.2376C49.4846 11.8432 66.7 0 66.7 0L69 3.59406C69 3.59406 54.3237 15.5098 45.0143 26.1386C36.1429 36.2673 24.9714 59.1386 24.9714 59.1386Z" fill="#4C7031"/>
</svg>
